<svg width="23" height="20" viewBox="0 0 23 20" fill="none" xmlns="http://www.w3.org/2000/svg">
<path d="M21.0399 1.02493C21.0399 1.02493 23.1674 0.202504 22.9894 2.19967C22.9308 3.02209 22.3991 5.90085 21.9851 9.01412L20.5668 18.2372C20.5668 18.2372 20.4485 19.5884 19.3845 19.8234C18.321 20.058 16.7253 19.001 16.4296 18.766C16.193 18.5895 11.9972 15.9458 10.5198 14.6538C10.1058 14.301 9.63264 13.5964 10.5789 12.7739L16.7839 6.89916C17.4931 6.19454 18.2022 4.54969 15.2473 6.54685L6.97289 12.1274C6.97289 12.1274 6.02717 12.7153 4.25455 12.1866L0.412512 11.0113C0.412512 11.0113 -1.0058 10.1302 1.41738 9.24918C7.32775 6.48822 14.5973 3.66863 21.0388 1.02493H21.0399Z" fill="white"/>
</svg>
