<svg width="20" height="15" viewBox="0 0 20 15" fill="none" xmlns="http://www.w3.org/2000/svg">
<mask id="path-1-inside-1_64_319" fill="white">
<path fill-rule="evenodd" clip-rule="evenodd" d="M0.000244141 3.15124V12.0001C0.000244141 13.6569 1.34339 15.0001 3.00024 15.0001H17.0002C18.6571 15.0001 20.0002 13.6569 20.0002 12.0001V3.15198L12.728 10.4242C11.2217 11.9305 8.77951 11.9305 7.2732 10.4242L0.000244141 3.15124ZM19.5726 1.65083C19.5317 1.76205 19.4654 1.86854 19.3707 1.96323L11.8189 9.51506C10.8147 10.5193 9.18654 10.5193 8.18234 9.51506L0.630515 1.96323C0.535653 1.86837 0.469259 1.76168 0.4284 1.65024C0.889013 0.956965 1.67701 0.5 2.57174 0.5H17.4289C18.3239 0.5 19.1121 0.957224 19.5726 1.65083Z"/>
</mask>
<path fill-rule="evenodd" clip-rule="evenodd" d="M0.000244141 3.15124V12.0001C0.000244141 13.6569 1.34339 15.0001 3.00024 15.0001H17.0002C18.6571 15.0001 20.0002 13.6569 20.0002 12.0001V3.15198L12.728 10.4242C11.2217 11.9305 8.77951 11.9305 7.2732 10.4242L0.000244141 3.15124ZM19.5726 1.65083C19.5317 1.76205 19.4654 1.86854 19.3707 1.96323L11.8189 9.51506C10.8147 10.5193 9.18654 10.5193 8.18234 9.51506L0.630515 1.96323C0.535653 1.86837 0.469259 1.76168 0.4284 1.65024C0.889013 0.956965 1.67701 0.5 2.57174 0.5H17.4289C18.3239 0.5 19.1121 0.957224 19.5726 1.65083Z" fill="white"/>
<path d="M0.000244141 3.15124L0.353798 2.79768L-0.499756 1.94413V3.15124H0.000244141ZM20.0002 3.15198H20.5002V1.94487L19.6467 2.79842L20.0002 3.15198ZM12.728 10.4242L13.0816 10.7777H13.0816L12.728 10.4242ZM7.2732 10.4242L6.91965 10.7777L7.2732 10.4242ZM19.3707 1.96323L19.7243 2.31679L19.7243 2.31678L19.3707 1.96323ZM19.5726 1.65083L20.0419 1.82331L20.1294 1.5854L19.9891 1.37425L19.5726 1.65083ZM11.8189 9.51506L11.4653 9.1615L11.8189 9.51506ZM8.18234 9.51506L7.82879 9.86861L8.18234 9.51506ZM0.630515 1.96323L0.984069 1.60968L0.984069 1.60968L0.630515 1.96323ZM0.4284 1.65024L0.0119395 1.37354L-0.128242 1.58453L-0.0410403 1.82236L0.4284 1.65024ZM0.500244 12.0001V3.15124H-0.499756V12.0001H0.500244ZM3.00024 14.5001C1.61953 14.5001 0.500244 13.3808 0.500244 12.0001H-0.499756C-0.499756 13.9331 1.06725 15.5001 3.00024 15.5001V14.5001ZM17.0002 14.5001H3.00024V15.5001H17.0002V14.5001ZM19.5002 12.0001C19.5002 13.3808 18.381 14.5001 17.0002 14.5001V15.5001C18.9332 15.5001 20.5002 13.9331 20.5002 12.0001H19.5002ZM19.5002 3.15198V12.0001H20.5002V3.15198H19.5002ZM19.6467 2.79842L12.3745 10.0706L13.0816 10.7777L20.3538 3.50553L19.6467 2.79842ZM12.3745 10.0706C11.0634 11.3817 8.9378 11.3817 7.62675 10.0706L6.91965 10.7777C8.62122 12.4793 11.38 12.4793 13.0816 10.7777L12.3745 10.0706ZM7.62675 10.0706L0.353798 2.79768L-0.353309 3.50479L6.91965 10.7777L7.62675 10.0706ZM19.7243 2.31678C19.8699 2.1712 19.9759 2.00305 20.0419 1.82331L19.1033 1.47835C19.0876 1.52106 19.061 1.56588 19.0172 1.60968L19.7243 2.31678ZM12.1724 9.86861L19.7243 2.31679L19.0172 1.60968L11.4653 9.1615L12.1724 9.86861ZM7.82879 9.86861C9.02825 11.0681 10.973 11.0681 12.1724 9.86861L11.4653 9.1615C10.6564 9.97045 9.34484 9.97045 8.53589 9.1615L7.82879 9.86861ZM0.276962 2.31679L7.82879 9.86861L8.53589 9.1615L0.984069 1.60968L0.276962 2.31679ZM-0.0410403 1.82236C0.0249904 2.00245 0.131115 2.17094 0.276962 2.31679L0.984069 1.60968C0.94019 1.5658 0.913527 1.5209 0.897839 1.47812L-0.0410403 1.82236ZM2.57174 0C1.50255 0 0.561276 0.54673 0.0119395 1.37354L0.84486 1.92694C1.21675 1.3672 1.85147 1 2.57174 1V0ZM17.4289 0H2.57174V1H17.4289V0ZM19.9891 1.37425C19.4399 0.54704 18.4984 0 17.4289 0V1C18.1494 1 18.7842 1.36741 19.1561 1.92741L19.9891 1.37425Z" fill="white" fill-opacity="0.3" mask="url(#path-1-inside-1_64_319)"/>
</svg>
